PathFileType	4	(X/Y/Z)	C:/Users/beibeiliu/ov580/test_trc/User2\sequence.27_training_dense_right.trc
DataRate	CameraRate	NumFrames	NumMarkers	Units	OrigDataRate	OrigDataStartFrame	OrigNumFrames
120	120	20	19	mm	120	70	278
Frame#	Time	ThumbCMC			ThumbMCP			ThumbIP			ThumbTip			IndexMCP			IndexPIP			IndexTip			MiddleMCP			MiddlePIP			MiddleTip			RingMCP			RingPIP			RingTip			PinkyMCP			PinkyPIP			PinkyTip			BackHand1			BackHand2			BackHand3	
		X0	Y0	Z0	X1	Y1	Z1	X2	Y2	Z2	X3	Y3	Z3	X4	Y4	Z4	X5	Y5	Z5	X6	Y6	Z6	X7	Y7	Z7	X8	Y8	Z8	X9	Y9	Z9	X10	Y10	Z10	X11	Y11	Z11	X12	Y12	Z12	X13	Y13	Z13	X14	Y14	Z14	X15	Y15	Z15	X16	Y16	Z16	X17	Y17	Z17	X18	Y18	Z18	
69	0.575	73.0821	19.5247	90.9653	42.3808	20.7385	74.1088	17.2279	20.4809	43.7373	10.6629	6.52526	23.7662	85.203	39.3516	11.6363	65.53	38.9958	-12.6184	33.7017	28.4404	-12.7864	86.9226	18.0369	-1.58372	56.1715	16.1614	-20.8777	22.7111	-1.23336	-6.17158	96.0646	-7.8444	-0.456486	74.4659	-3.78198	-23.6666	37.9347	-11.0717	-22.4837	96.6507	-31.7926	8.17156	86.0813	-38.457	-16.9629	62.9172	-36.3797	-34.6479	115.967	-18.9535	50.7869	125.19	-23.716	85.9595	112.426	12.0021	79.5123	
70	0.583333	75.1137	18.9809	92.1216	43.3856	20.3811	70.5251	16.9498	22.1637	44.2075	12.2036	7.05398	19.5936	89.4619	37.3225	8.48024	69.2054	41.2227	-14.4225	33.7994	31.0024	-14.3799	94.6909	15.8687	-3.19929	66.5313	20.5221	-24.8903	31.3433	3.93479	-16.0189	99.7017	-5.04437	-1.13533	81.5124	-2.39758	-27.1675	45.5317	-3.76862	-28.3564	100.265	-31.8308	6.28642	87.2123	-35.9521	-21.9657	69.158	-32.4894	-37.6045	116.535	-19.3607	48.7712	126.029	-24.9036	79.884	117.237	11.6094	74.6693	
71	0.591667	78.6674	19.6703	87.6071	45.5611	23.8569	69.729	24.0406	18.4687	39.2907	16.8116	4.79991	14.0051	96.755	37.5012	8.64737	76.5281	37.57	-18.6125	45.6915	32.6921	-19.9264	102.555	19.7666	-6.55231	79.0159	21.2811	-30.901	38.5761	10.4707	-22.5883	106.223	-7.43807	-5.14834	89.4755	-8.6397	-30.5885	51.1739	-5.89438	-33.8792	103.066	-36.3283	7.14213	93.8133	-35.2725	-21.0998	73.6746	-34.7468	-38.8347	122.865	-22.115	49.83	129.68	-27.9198	83.514	118.839	8.42333	76.2011	
72	0.6	83.9048	18.5711	87.3262	50.815	22.8914	62.4833	29.2054	18.8314	34.7307	23.5764	2.80946	12.117	104.49	32.1071	7.47012	83.7926	36.3403	-23.1543	51.4094	27.8591	-23.681	112.105	14.5863	-7.81881	89.4977	15.7546	-36.7695	52.7196	11.1707	-32.2729	112.61	-11.1987	-4.77016	94.1261	-7.22693	-33.5617	59.3142	-10.877	-37.1207	106.5	-37.3571	6.64036	94.0892	-37.536	-25.7505	72.8845	-38.4544	-44.7868	125.614	-24.5602	48.144	132.616	-31.2874	76.0754	122.898	9.54703	69.3626	
73	0.608333	86.95	19.1105	80.547	52.7058	25.2039	61.5205	32.9716	17.6602	32.8673	28.2496	2.28459	10.2049	109.707	31.0035	3.51304	90.9554	37.902	-24.3065	59.5213	28.7785	-27.7799	118.623	11.4679	-8.58446	100.01	13.092	-37.5929	60.5531	8.62004	-37.0509	116.091	-14.4361	-5.44672	98.7022	-15.4717	-36.6819	63.4879	-13.3834	-37.6233	108.43	-42.3419	5.01795	96.6102	-45.1441	-25.9176	73.1854	-40.3483	-45.4224	125.509	-24.9254	45.7866	133.454	-32.3975	79.1596	125.978	6.09209	70.6817	
74	0.616667	89.2839	17.7585	79.3652	58.1677	21.4232	55.3618	37.2261	16.8434	29.7771	34.0477	-1.88018	7.54644	113.256	27.9372	1.18106	94.6311	32.6812	-28.4576	63.5138	22.1429	-28.9179	121.949	7.01999	-11.0295	101.572	6.39995	-41.3754	64.7587	2.20745	-39.4619	118.313	-19.3713	-6.89727	96.228	-18.891	-37.4546	66.0031	-16.1178	-36.4978	109.721	-44.8497	4.07565	95.4588	-45.4904	-28.0931	71.4409	-38.5809	-42.5431	128.075	-30.3589	43.2636	134.809	-34.7097	79.1278	129.723	4.43102	64.7004	
75	0.625	91.8513	18.6843	76.659	60.0864	23.2076	55.748	38.7257	17.6223	28.0431	35.9797	-3.31427	1.25481	115.714	25.3058	-3.01123	97.6399	28.6725	-29.4937	64.0725	24.4779	-29.1252	123.715	4.64896	-9.24835	101.401	6.36122	-42.5742	61.3189	1.58773	-34.3306	116.55	-22.4683	-13.5238	98.25	-19.2607	-35.5825	62.0797	-17.0893	-30.2807	109.355	-47.01	4.59432	96.6174	-48.7097	-24.5002	69.0645	-41.5574	-40.6555	129.186	-32.9813	42.9654	134.727	-36.6665	77.5532	133.169	4.23785	63.696	
76	0.633333	93.9764	18.1047	76.9315	61.9927	21.9018	49.0944	41.7694	14.1693	23.7488	37.0299	-5.65505	0.283391	118.304	20.4829	-1.1265	100.042	29.627	-30.235	62.4456	20.035	-27.5433	123.867	2.16112	-12.8883	100.126	1.83662	-43.1106	63.5052	1.62799	-32.4888	114.555	-22.6422	-10.8911	89.7431	-21.8937	-36.0809	58.5442	-17.5731	-24.5176	108.091	-46.3328	3.4052	94.0879	-47.7425	-24.9696	65.2505	-37.2794	-37.6971	128.506	-32.5663	47.2916	137.441	-39.5541	73.5691	133.968	-0.361832	67.1036	
77	0.641667	93.8498	18.7636	75.2846	63.1447	18.3238	51.9352	42.696	12.5675	22.9364	39.1774	-10.1531	0.702284	118.107	24.381	-5.79831	98.0988	26.1375	-30.9445	63.7795	18.4995	-27.8165	121.436	-1.4324	-15.0938	98.1633	2.70286	-41.5053	59.9315	-2.60258	-28.2784	111.074	-27.8368	-16.6192	88.1771	-21.2129	-33.4689	56.6293	-15.6513	-20.5066	105.63	-51.5352	2.36296	87.2979	-49.4031	-25.9934	56.9321	-38.7388	-31.4513	126.915	-33.772	43.3773	134.157	-40.9919	73.0192	132.613	-3.49655	63.1115	
78	0.65	93.005	18.2828	76.9649	60.935	19.8681	53.1172	40.7783	10.9013	17.5378	44.2653	-15.183	2.29217	115.873	19.6952	-1.9886	97.7513	26.7449	-31.2046	62.9797	18.1218	-27.2225	120.129	-2.24365	-11.7496	95.5232	-3.06567	-41.6842	58.6518	-2.78477	-26.595	108.706	-27.8401	-14.6494	81.951	-25.5273	-33.6454	53.317	-18.418	-14.463	104.314	-50.3954	-1.25755	86.1952	-50.0737	-24.9707	57.5992	-36.7386	-29.3638	128.723	-33.7042	44.1329	136.38	-37.3929	76.6466	131.876	-2.46352	62.2818	
79	0.658333	91.0666	17.6078	75.5843	60.1895	20.2557	51.2424	41.9413	9.61648	25.3071	44.0865	-14.0524	5.06848	114.574	23.2135	-5.33141	94.6017	21.8922	-31.858	61.2222	21.3138	-25.8084	118.489	-0.312187	-12.2898	94.0933	-0.89592	-40.5242	54.5167	-1.29383	-21.375	108.299	-24.8966	-10.5997	80.868	-22.4902	-32.4555	51.1237	-18.8097	-10.4487	104.022	-51.2165	-0.38771	84.9137	-44.293	-23.8941	52.3344	-38.1145	-27.2907	128.079	-33.5171	45.8382	135.366	-36.1538	74.6035	129.95	-0.793342	65.1971	
80	0.666667	91.4591	17.4036	77.4294	59.3486	19.4189	49.9318	40.2829	9.86628	22.9545	39.2486	-13.4004	2.06032	114.183	18.5664	-5.26402	93.6099	23.1354	-30.9933	59.2265	18.5549	-25.3417	116.529	-3.4169	-13.8626	91.3111	-4.41273	-40.6442	55.1299	-1.89538	-23.4916	107.861	-26.3041	-10.7377	82.1416	-23.1416	-30.7926	50.9848	-18.1782	-10.7853	102.929	-48.7868	1.70757	80.6283	-48.3155	-24.5294	49.4289	-38.9301	-24.5654	126.962	-32.6818	46.1324	133.402	-37.9872	75.5892	128.957	-1.28127	65.6108	
81	0.675	90.4106	16.7279	76.4966	58.8613	18.7818	52.2245	38.6827	11.1874	23.8372	40.7319	-14.029	7.95822	111.964	20.4679	-5.21519	90.9971	22.5018	-30.8	55.3624	18.5469	-24.791	115.458	-6.95271	-17.0252	86.3056	-5.9801	-40.2244	52.9058	-2.42129	-22.9673	105.738	-29.6343	-13.1131	78.2064	-23.7877	-31.2969	48.9239	-23.0957	-9.32129	99.6978	-52.3045	0.618057	78.387	-52.9795	-23.7526	50.221	-42.3602	-27.6237	124.462	-35.8593	47.5639	132.969	-43.1375	76.4017	128.913	-6.33604	63.1146	
82	0.683333	90.4431	19.3737	74.0877	59.6921	19.656	50.9193	40.326	9.03693	22.2517	39.467	-14.8562	6.66231	110.638	13.9773	-8.40108	91.8315	17.9657	-32.1644	59.0905	13.9376	-27.1093	114.824	-8.15256	-14.8664	92.2502	-4.45322	-41.7157	50.8572	-4.54245	-24.5059	105.178	-30.9832	-14.0497	78.1848	-25.8958	-31.2348	51.5265	-22.387	-12.8632	98.3647	-54.33	4.2728	76.6252	-56.3235	-22.661	50.3381	-44.8512	-27.3585	123.222	-38.682	41.908	132.765	-41.2346	73.0602	128.014	-5.31991	59.6536	
83	0.691667	95.2601	16.131	73.1499	61.3514	21.6895	48.3312	40.83	12.0697	23.1128	38.2163	-13.9977	6.0325	112.579	9.43432	-8.21288	90.076	15.7635	-35.4962	55.8458	16.3496	-27.8947	115.983	-14.8131	-15.5607	92.1875	-11.1252	-43.3984	54.3006	-6.31624	-30.7438	106.01	-33.4177	-10.3433	83.1688	-32.8586	-32.7672	51.2902	-20.086	-14.734	94.8191	-57.3058	1.09897	72.6839	-55.4031	-22.5587	47.8403	-45.3101	-26.1261	123.272	-43.3998	43.1361	131.113	-46.9217	76.8415	131.959	-8.61207	58.5002	
84	0.7	98.9686	16.5779	70.7171	67.2706	20.1286	47.1956	42.1866	11.9739	19.8136	39.2054	-13.4553	9.09701	115.231	10.5229	-12.1672	91.5662	9.65688	-36.3538	57.9208	12.8919	-29.0815	116.117	-16.4467	-15.6267	90.4871	-14.0713	-46.4256	53.1402	-9.46602	-32.7757	106.994	-36.213	-14.2954	82.2305	-38.6025	-34.7617	54.331	-20.9245	-19.332	93.6234	-59.9137	7.13857	71.5205	-61.3617	-19.9749	47.0676	-43.8735	-23.3513	123.123	-40.3263	40.8188	131.609	-46.7038	73.0049	132.314	-12.039	55.693	
85	0.708333	102.632	15.7298	66.9087	69.715	21.7495	46.0456	46.8542	9.98107	20.4286	38.6872	-13.2755	6.57406	116.244	4.2446	-11.4977	94.8123	6.61441	-38.4114	59.3409	11.1879	-30.8552	117.798	-19.3609	-21.0326	94.7822	-20.4545	-46.564	54.4385	-8.67755	-34.7272	105.789	-44.9977	-13.831	85.9929	-38.8406	-35.2512	52.8479	-26.3391	-21.3643	91.1482	-61.4514	3.43617	70.3484	-61.0454	-19.1877	43.935	-40.7951	-21.1609	122.977	-43.6342	44.2155	130.558	-48.3467	76.7527	135.357	-15.3492	58.8013	
86	0.716667	105.573	17.1237	64.5742	71.6453	24.4201	45.3786	46.6918	13.8486	16.5858	38.6193	-12.4049	5.87012	117.965	0.0681683	-16.3227	97.8715	2.26329	-38.4915	59.4178	7.78884	-30.6579	118.12	-26.4546	-19.4716	92.7778	-23.7899	-48.2146	56.4979	-8.86136	-35.5343	105.56	-48.0787	-14.9864	83.8491	-40.169	-36.188	55.2324	-22.1059	-22.8452	89.7137	-62.0631	5.5364	69.1576	-59.0658	-19.9795	45.1705	-42.7857	-22.8549	120.725	-46.5586	42.1191	132.528	-51.0206	74.4843	137.696	-16.3965	53.4664	
87	0.725	109.629	16.3186	65.2107	76.0443	22.4226	39.4265	48.9083	13.6226	14.8382	42.7944	-16.572	5.74221	118.426	-6.61814	-17.1329	98.2068	-2.53458	-40.1427	65.3952	9.83747	-35.2709	117.692	-29.6759	-22.2561	94.4551	-24.49	-48.1809	58.1369	-13.1429	-38.3843	105.146	-49.8317	-13.2492	81.8238	-46.3675	-35.2894	55.6483	-25.5886	-25.4956	86.6902	-65.6339	7.36473	66.6592	-60.4978	-17.1127	40.0519	-42.2454	-18.8331	120.945	-50.8487	44.6349	128.841	-50.5718	73.548	137.5	-18.9099	55.8996	
88	0.733333	113.457	15.6722	63.9239	78.7531	25.3468	38.4132	54.067	12.058	16.5318	45.7977	-16.868	9.98962	118.251	-11.5235	-17.1777	94.2314	-7.47996	-42.3566	64.0809	8.87425	-33.1096	115.035	-38.0391	-21.6541	92.9607	-32.8124	-48.1273	57.6394	-12.5535	-40.0856	103.05	-50.9755	-13.8765	79.6813	-46.9314	-35.3865	50.8365	-27.0218	-23.425	85.9652	-63.9514	9.11779	61.682	-61.2109	-16.4162	38.1488	-37.6653	-16.3247	118.239	-49.505	41.0101	129.449	-50.5998	71.7278	139.752	-20.8754	52.1471	
